<mxfile host="Electron" agent="Mozilla/5.0 (Windows NT 10.0; Win64; x64) AppleWebKit/537.36 (KHTML, like Gecko) draw.io/24.7.17 Chrome/128.0.6613.36 Electron/32.0.1 Safari/537.36" version="24.7.17">
  <diagram name="第 1 页" id="McsU5hQKHNJzKi_LHjOL">
    <mxGraphModel dx="2074" dy="1197" grid="0" gridSize="10" guides="1" tooltips="1" connect="1" arrows="1" fold="1" page="1" pageScale="1" pageWidth="1169" pageHeight="827" math="0" shadow="0">
      <root>
        <mxCell id="0" />
        <mxCell id="1" parent="0" />
        <mxCell id="1zz9RkkkOeowPqxNJsrD-7" value="" style="rounded=0;whiteSpace=wrap;html=1;dashed=1;fillColor=none;" parent="1" vertex="1">
          <mxGeometry x="279" y="348.98" width="177" height="255" as="geometry" />
        </mxCell>
        <mxCell id="1zz9RkkkOeowPqxNJsrD-1" value="" style="dashed=0;outlineConnect=0;html=1;align=center;labelPosition=center;verticalLabelPosition=bottom;verticalAlign=top;shape=mxgraph.weblogos.github" parent="1" vertex="1">
          <mxGeometry x="330" y="241.48" width="75" height="75" as="geometry" />
        </mxCell>
        <mxCell id="1zz9RkkkOeowPqxNJsrD-17" style="edgeStyle=orthogonalEdgeStyle;rounded=0;orthogonalLoop=1;jettySize=auto;html=1;" parent="1" source="1zz9RkkkOeowPqxNJsrD-2" target="1zz9RkkkOeowPqxNJsrD-9" edge="1">
          <mxGeometry relative="1" as="geometry" />
        </mxCell>
        <mxCell id="1zz9RkkkOeowPqxNJsrD-2" value="./svc-a" style="rounded=1;whiteSpace=wrap;html=1;" parent="1" vertex="1">
          <mxGeometry x="307" y="373.48" width="120" height="60" as="geometry" />
        </mxCell>
        <mxCell id="1zz9RkkkOeowPqxNJsrD-19" style="edgeStyle=orthogonalEdgeStyle;rounded=0;orthogonalLoop=1;jettySize=auto;html=1;" parent="1" source="1zz9RkkkOeowPqxNJsrD-3" target="1zz9RkkkOeowPqxNJsrD-10" edge="1">
          <mxGeometry relative="1" as="geometry" />
        </mxCell>
        <mxCell id="1zz9RkkkOeowPqxNJsrD-3" value="./svc-b" style="rounded=1;whiteSpace=wrap;html=1;" parent="1" vertex="1">
          <mxGeometry x="307.5" y="446.48" width="120" height="60" as="geometry" />
        </mxCell>
        <mxCell id="1zz9RkkkOeowPqxNJsrD-25" style="edgeStyle=orthogonalEdgeStyle;rounded=0;orthogonalLoop=1;jettySize=auto;html=1;" parent="1" source="1zz9RkkkOeowPqxNJsrD-4" target="1zz9RkkkOeowPqxNJsrD-12" edge="1">
          <mxGeometry relative="1" as="geometry" />
        </mxCell>
        <mxCell id="1zz9RkkkOeowPqxNJsrD-4" value="./svc-c" style="rounded=1;whiteSpace=wrap;html=1;" parent="1" vertex="1">
          <mxGeometry x="307.5" y="523.48" width="120" height="60" as="geometry" />
        </mxCell>
        <mxCell id="1zz9RkkkOeowPqxNJsrD-5" value="" style="image;sketch=0;aspect=fixed;html=1;points=[];align=center;fontSize=12;image=img/lib/mscae/Docker.svg;" parent="1" vertex="1">
          <mxGeometry x="794" y="249.46" width="72" height="59.04" as="geometry" />
        </mxCell>
        <mxCell id="1zz9RkkkOeowPqxNJsrD-8" value="Repository" style="text;html=1;align=center;verticalAlign=middle;whiteSpace=wrap;rounded=0;" parent="1" vertex="1">
          <mxGeometry x="338" y="319.48" width="60" height="30" as="geometry" />
        </mxCell>
        <mxCell id="1zz9RkkkOeowPqxNJsrD-18" style="edgeStyle=orthogonalEdgeStyle;rounded=0;orthogonalLoop=1;jettySize=auto;html=1;" parent="1" source="1zz9RkkkOeowPqxNJsrD-9" target="1zz9RkkkOeowPqxNJsrD-16" edge="1">
          <mxGeometry relative="1" as="geometry" />
        </mxCell>
        <mxCell id="1zz9RkkkOeowPqxNJsrD-9" value="SVC-A" style="rounded=1;whiteSpace=wrap;html=1;" parent="1" vertex="1">
          <mxGeometry x="551.67" y="373.48" width="120" height="60" as="geometry" />
        </mxCell>
        <mxCell id="1zz9RkkkOeowPqxNJsrD-21" style="edgeStyle=orthogonalEdgeStyle;rounded=0;orthogonalLoop=1;jettySize=auto;html=1;" parent="1" source="1zz9RkkkOeowPqxNJsrD-10" target="1zz9RkkkOeowPqxNJsrD-20" edge="1">
          <mxGeometry relative="1" as="geometry" />
        </mxCell>
        <mxCell id="1zz9RkkkOeowPqxNJsrD-10" value="SVC-B" style="rounded=1;whiteSpace=wrap;html=1;" parent="1" vertex="1">
          <mxGeometry x="551.67" y="446.48" width="120" height="60" as="geometry" />
        </mxCell>
        <mxCell id="1zz9RkkkOeowPqxNJsrD-24" style="edgeStyle=orthogonalEdgeStyle;rounded=0;orthogonalLoop=1;jettySize=auto;html=1;" parent="1" source="1zz9RkkkOeowPqxNJsrD-12" target="1zz9RkkkOeowPqxNJsrD-22" edge="1">
          <mxGeometry relative="1" as="geometry" />
        </mxCell>
        <mxCell id="1zz9RkkkOeowPqxNJsrD-12" value="SVC-C" style="rounded=1;whiteSpace=wrap;html=1;" parent="1" vertex="1">
          <mxGeometry x="551.66" y="523.48" width="120" height="60" as="geometry" />
        </mxCell>
        <mxCell id="1zz9RkkkOeowPqxNJsrD-13" value="Pipeline" style="text;html=1;align=center;verticalAlign=middle;whiteSpace=wrap;rounded=0;" parent="1" vertex="1">
          <mxGeometry x="581.67" y="319.48" width="60" height="30" as="geometry" />
        </mxCell>
        <mxCell id="1zz9RkkkOeowPqxNJsrD-14" value="Image" style="text;html=1;align=center;verticalAlign=middle;whiteSpace=wrap;rounded=0;" parent="1" vertex="1">
          <mxGeometry x="800" y="319.48" width="60" height="30" as="geometry" />
        </mxCell>
        <mxCell id="1zz9RkkkOeowPqxNJsrD-16" value="SVC-A" style="rounded=1;whiteSpace=wrap;html=1;" parent="1" vertex="1">
          <mxGeometry x="770" y="373.48" width="120" height="60" as="geometry" />
        </mxCell>
        <mxCell id="1zz9RkkkOeowPqxNJsrD-20" value="SVC-B" style="rounded=1;whiteSpace=wrap;html=1;" parent="1" vertex="1">
          <mxGeometry x="770" y="446.48" width="120" height="60" as="geometry" />
        </mxCell>
        <mxCell id="1zz9RkkkOeowPqxNJsrD-22" value="SVC-C" style="rounded=1;whiteSpace=wrap;html=1;" parent="1" vertex="1">
          <mxGeometry x="770" y="523.48" width="120" height="60" as="geometry" />
        </mxCell>
        <mxCell id="1zz9RkkkOeowPqxNJsrD-28" value="./svc-*/Jenkinsfile" style="text;html=1;align=center;verticalAlign=middle;whiteSpace=wrap;rounded=0;" parent="1" vertex="1">
          <mxGeometry x="423" y="476.48" width="121" height="30" as="geometry" />
        </mxCell>
        <mxCell id="1zz9RkkkOeowPqxNJsrD-29" value="New commit to any one of svcs will trigger all pipelines, which is un-necessary..." style="text;html=1;align=center;verticalAlign=middle;whiteSpace=wrap;rounded=0;fillColor=#f8cecc;strokeColor=#b85450;" parent="1" vertex="1">
          <mxGeometry x="359.17" y="617" width="505" height="30" as="geometry" />
        </mxCell>
        <mxCell id="vhK9l6C941lSTyHEithB-1" value="" style="shape=image;verticalLabelPosition=bottom;labelBackgroundColor=default;verticalAlign=top;aspect=fixed;imageAspect=0;image=https://icon.icepanel.io/Technology/svg/Jenkins.svg;" vertex="1" parent="1">
          <mxGeometry x="560.17" y="216.48" width="103" height="103" as="geometry" />
        </mxCell>
      </root>
    </mxGraphModel>
  </diagram>
</mxfile>
